<svg xmlns="http://www.w3.org/2000/svg" fill="none" viewBox="0 0 283 64">
  <path fill="#000" d="M141 16.25v31.5h-5.25v-31.5H141Zm-19.5 0v31.5h-5.25v-31.5h5.25ZM70.3 16.25v4.887h-9.75v26.613H55.3V21.137h-9.75V16.25h24.75Zm39 0-11.25 31.5h-5.625l-11.25-31.5h5.625l8.437 24.262L103.037 16.25H109.3Zm67.406 0v4.887h-9.75v26.613h-5.25V21.137h-9.75V16.25h24.75Zm32.219 0c2.25 0 4.312.375 6.187 1.125a13.42 13.42 0 0 1 4.575 3.188 14.08 14.08 0 0 1 2.962 4.612c.675 1.725 1.013 3.6 1.013 5.625 0 2.063-.338 3.938-1.013 5.625a13.68 13.68 0 0 1-2.962 4.575 13.42 13.42 0 0 1-4.575 3.188c-1.875.75-3.938 1.125-6.187 1.125h-12.375v-31.5h12.375Zm-.375 26.55c1.5 0 2.888-.225 4.163-.675a8.36 8.36 0 0 0 3.188-2.063 9.06 9.06 0 0 0 2.1-3.15c.487-1.2.731-2.512.731-3.938 0-1.463-.244-2.788-.731-3.975a8.709 8.709 0 0 0-2.1-3.262 8.36 8.36 0 0 0-3.188-2.063c-1.275-.45-2.663-.675-4.163-.675h-6.75v19.8h6.75Zm45.094-26.55c2.25 0 4.313.375 6.188 1.125a13.42 13.42 0 0 1 4.574 3.188 14.081 14.081 0 0 1 2.963 4.612c.675 1.725 1.012 3.6 1.012 5.625 0 2.063-.337 3.938-1.012 5.625a13.68 13.68 0 0 1-2.963 4.575 13.42 13.42 0 0 1-4.574 3.188c-1.875.75-3.938 1.125-6.188 1.125H210.5v-31.5h12.375Zm-.375 26.55c1.5 0 2.887-.225 4.162-.675a8.36 8.36 0 0 0 3.188-2.063 9.06 9.06 0 0 0 2.1-3.15c.488-1.2.732-2.512.732-3.938 0-1.463-.244-2.788-.732-3.975a8.71 8.71 0 0 0-2.1-3.262 8.36 8.36 0 0 0-3.187-2.063c-1.275-.45-2.663-.675-4.163-.675h-6.75v19.8h6.75ZM17.96 0 35.92 31.5H0L17.96 0Z" />
</svg>
